PathFileType	4	(X/Y/Z)	C:\Users\italobelli\Desktop\GitHub\PTbot_officialCBL\Personal_Results\ABD22_noisy2.trc
DataRate	CameraRate	NumFrames	NumMarkers	Units	OrigDataRate	OrigDataStartFrame	OrigNumFrames
106.125000	106.125000	42	9	m	106.125000	532	850
Frame#	Time		gu		centelbow		EpL		centpxt8		centijc7		ij		ts		aa		ai
			X1	Y1	Z1	X2	Y2	Z2	X3	Y3	Z3	X4	Y4	Z4	X5	Y5	Z5	X6	Y6	Z6	X7	Y7	Z7	X8	Y8	Z8	X9	Y9	Z9

532	5.0035	-0.11395	0.06436	0.11468	-0.078326	0.15612	0.33039	-0.092157	0.18222	0.31747	-0.046816	-0.15316	-0.008669	-0.046816	0.031938	-0.008669	0	0	0	-0.13686	-0.0067575	0.028445	-0.15289	0.074226	0.11451	-0.13835	-0.085835	0.10981
533	5.013	-0.11385	0.064114	0.11513	-0.078596	0.15329	0.33183	-0.092338	0.17958	0.31918	-0.046816	-0.15316	-0.008669	-0.046816	0.031938	-0.008669	0	0	0	-0.13685	-0.0064357	0.028291	-0.15276	0.073948	0.11489	-0.13828	-0.08596	0.10905
534	5.0224	-0.11376	0.063851	0.11561	-0.078874	0.15032	0.33327	-0.092525	0.17679	0.32091	-0.046816	-0.15316	-0.008669	-0.046816	0.031938	-0.008669	0	0	0	-0.13684	-0.0060947	0.028137	-0.15264	0.07366	0.11528	-0.13821	-0.086083	0.10826
535	5.0318	-0.11366	0.063572	0.1161	-0.079159	0.14722	0.33472	-0.092718	0.17387	0.32267	-0.046816	-0.15316	-0.008669	-0.046816	0.031938	-0.008669	0	0	0	-0.13684	-0.0057352	0.027983	-0.15251	0.073362	0.11568	-0.13814	-0.086204	0.10745
536	5.0412	-0.11357	0.063277	0.11661	-0.079452	0.144	0.33617	-0.092917	0.17082	0.32446	-0.046816	-0.15316	-0.008669	-0.046816	0.031938	-0.008669	0	0	0	-0.13683	-0.005358	0.027829	-0.15238	0.073054	0.11609	-0.13807	-0.086322	0.10662
537	5.0506	-0.11347	0.062967	0.11715	-0.079752	0.14065	0.33763	-0.093122	0.16764	0.32626	-0.046816	-0.15316	-0.008669	-0.046816	0.031938	-0.008669	0	0	0	-0.13682	-0.0049639	0.027676	-0.15225	0.072738	0.1165	-0.13799	-0.086438	0.10577
538	5.0601	-0.11338	0.062642	0.1177	-0.080059	0.13718	0.33908	-0.093332	0.16435	0.32808	-0.046816	-0.15316	-0.008669	-0.046816	0.031938	-0.008669	0	0	0	-0.13681	-0.0045536	0.027523	-0.15212	0.072412	0.11693	-0.13792	-0.086552	0.1049
539	5.0695	-0.11328	0.062303	0.11826	-0.080372	0.1336	0.34053	-0.093548	0.16094	0.32991	-0.046816	-0.15316	-0.008669	-0.046816	0.031938	-0.008669	0	0	0	-0.13681	-0.004128	0.027371	-0.15198	0.072079	0.11736	-0.13784	-0.086663	0.10401
540	5.0789	-0.11318	0.06195	0.11885	-0.080692	0.12991	0.34197	-0.093769	0.15741	0.33176	-0.046816	-0.15316	-0.008669	-0.046816	0.031938	-0.008669	0	0	0	-0.1368	-0.0036877	0.02722	-0.15184	0.071737	0.1178	-0.13777	-0.086772	0.10311
541	5.0883	-0.11309	0.061583	0.11944	-0.081018	0.12612	0.34341	-0.093996	0.15378	0.33361	-0.046816	-0.15316	-0.008669	-0.046816	0.031938	-0.008669	0	0	0	-0.13679	-0.0032337	0.02707	-0.1517	0.071387	0.11824	-0.13769	-0.086878	0.10219
542	5.0978	-0.11299	0.061203	0.12006	-0.08135	0.12224	0.34483	-0.094227	0.15005	0.33548	-0.046816	-0.15316	-0.008669	-0.046816	0.031938	-0.008669	0	0	0	-0.13678	-0.0027667	0.026922	-0.15156	0.071031	0.1187	-0.13762	-0.086981	0.10126
543	5.1072	-0.11289	0.060811	0.12068	-0.081688	0.11825	0.34625	-0.094464	0.14623	0.33734	-0.046816	-0.15316	-0.008669	-0.046816	0.031938	-0.008669	0	0	0	-0.13677	-0.0022875	0.026775	-0.15141	0.070667	0.11915	-0.13754	-0.087082	0.10031
544	5.1166	-0.11279	0.060406	0.12132	-0.082032	0.11419	0.34766	-0.094705	0.14231	0.33921	-0.046816	-0.15316	-0.008669	-0.046816	0.031938	-0.008669	0	0	0	-0.13676	-0.0017967	0.026629	-0.15126	0.070296	0.11961	-0.13746	-0.08718	0.099356
545	5.126	-0.11269	0.05999	0.12197	-0.082381	0.11003	0.34905	-0.09495	0.1383	0.34108	-0.046816	-0.15316	-0.008669	-0.046816	0.031938	-0.008669	0	0	0	-0.13675	-0.0012954	0.026485	-0.15112	0.06992	0.12008	-0.13738	-0.087275	0.098386
546	5.1355	-0.11259	0.059562	0.12263	-0.082735	0.1058	0.35043	-0.0952	0.13421	0.34294	-0.046816	-0.15316	-0.008669	-0.046816	0.031938	-0.008669	0	0	0	-0.13674	-0.00078411	0.026343	-0.15097	0.069537	0.12055	-0.1373	-0.087368	0.097406
547	5.1449	-0.1125	0.059123	0.1233	-0.083094	0.1015	0.35179	-0.095454	0.13005	0.3448	-0.046816	-0.15316	-0.008669	-0.046816	0.031938	-0.008669	0	0	0	-0.13673	-0.00026374	0.026203	-0.15081	0.069149	0.12103	-0.13723	-0.087458	0.096417
548	5.1543	-0.1124	0.058673	0.12398	-0.083458	0.097131	0.35313	-0.095713	0.12581	0.34665	-0.046816	-0.15316	-0.008669	-0.046816	0.031938	-0.008669	0	0	0	-0.13672	0.00026494	0.026065	-0.15066	0.068755	0.1215	-0.13715	-0.087545	0.09542
549	5.1637	-0.1123	0.058213	0.12467	-0.083826	0.092697	0.35446	-0.095975	0.12151	0.34848	-0.046816	-0.15316	-0.008669	-0.046816	0.031938	-0.008669	0	0	0	-0.13671	0.00080117	0.025929	-0.1505	0.068357	0.12199	-0.13707	-0.087628	0.094415
550	5.1731	-0.1122	0.057744	0.12537	-0.084199	0.088204	0.35576	-0.096241	0.11714	0.3503	-0.046816	-0.15316	-0.008669	-0.046816	0.031938	-0.008669	0	0	0	-0.13669	0.0013442	0.025796	-0.15035	0.067954	0.12247	-0.13699	-0.087709	0.093405
551	5.1826	-0.1121	0.057266	0.12607	-0.084576	0.083658	0.35703	-0.096511	0.11271	0.35211	-0.046816	-0.15316	-0.008669	-0.046816	0.031938	-0.008669	0	0	0	-0.13668	0.0018931	0.025666	-0.15019	0.067546	0.12295	-0.13691	-0.087787	0.092389
552	5.192	-0.112	0.056778	0.12677	-0.084956	0.079064	0.35828	-0.096784	0.10823	0.35389	-0.046816	-0.15316	-0.008669	-0.046816	0.031938	-0.008669	0	0	0	-0.13667	0.0024473	0.025538	-0.15003	0.067135	0.12344	-0.13684	-0.087861	0.09137
553	5.2014	-0.1119	0.056282	0.12749	-0.08534	0.074426	0.3595	-0.097061	0.10371	0.35565	-0.046816	-0.15316	-0.008669	-0.046816	0.031938	-0.008669	0	0	0	-0.13665	0.0030059	0.025414	-0.14987	0.066721	0.12393	-0.13676	-0.087933	0.090348
554	5.2108	-0.1118	0.055779	0.1282	-0.085728	0.06975	0.3607	-0.097341	0.099134	0.35739	-0.046816	-0.15316	-0.008669	-0.046816	0.031938	-0.008669	0	0	0	-0.13664	0.0035681	0.025292	-0.14971	0.066303	0.12442	-0.13669	-0.088001	0.089324
555	5.2203	-0.1117	0.055267	0.12892	-0.086119	0.06504	0.36186	-0.097624	0.094523	0.3591	-0.046816	-0.15316	-0.008669	-0.046816	0.031938	-0.008669	0	0	0	-0.13662	0.0041331	0.025174	-0.14955	0.065883	0.12491	-0.13661	-0.088066	0.0883
556	5.2297	-0.1116	0.054749	0.12964	-0.086513	0.060302	0.36299	-0.09791	0.089878	0.36078	-0.046816	-0.15316	-0.008669	-0.046816	0.031938	-0.008669	0	0	0	-0.13661	0.0047002	0.02506	-0.14938	0.06546	0.1254	-0.13654	-0.088128	0.087276
557	5.2391	-0.1115	0.054224	0.13036	-0.086909	0.05554	0.36408	-0.098199	0.085204	0.36242	-0.046816	-0.15316	-0.008669	-0.046816	0.031938	-0.008669	0	0	0	-0.13659	0.0052686	0.024948	-0.14922	0.065035	0.12589	-0.13646	-0.088186	0.086253
558	5.2485	-0.1114	0.053692	0.13108	-0.087309	0.05076	0.36514	-0.09849	0.080505	0.36403	-0.046816	-0.15316	-0.008669	-0.046816	0.031938	-0.008669	0	0	0	-0.13658	0.0058376	0.024841	-0.14905	0.064608	0.12638	-0.13639	-0.08824	0.085233
559	5.258	-0.1113	0.053155	0.1318	-0.08771	0.045965	0.36616	-0.098784	0.075786	0.36561	-0.046816	-0.15316	-0.008669	-0.046816	0.031938	-0.008669	0	0	0	-0.13656	0.0064062	0.024738	-0.14889	0.06418	0.12686	-0.13632	-0.088292	0.084216
560	5.2674	-0.1112	0.052613	0.13251	-0.088114	0.041162	0.36714	-0.09908	0.071053	0.36714	-0.046816	-0.15316	-0.008669	-0.046816	0.031938	-0.008669	0	0	0	-0.13654	0.0069738	0.024638	-0.14872	0.063751	0.12735	-0.13625	-0.088339	0.083204
561	5.2768	-0.1111	0.052065	0.13323	-0.088519	0.036355	0.36808	-0.099378	0.066309	0.36862	-0.046816	-0.15316	-0.008669	-0.046816	0.031938	-0.008669	0	0	0	-0.13652	0.0075395	0.024543	-0.14855	0.063321	0.12783	-0.13618	-0.088384	0.082198
562	5.2862	-0.11101	0.051513	0.13394	-0.088926	0.031549	0.36898	-0.099678	0.061559	0.37006	-0.046816	-0.15316	-0.008669	-0.046816	0.031938	-0.008669	0	0	0	-0.1365	0.0081026	0.024452	-0.14839	0.062891	0.12831	-0.13611	-0.088424	0.081198
563	5.2956	-0.11091	0.050957	0.13464	-0.089335	0.026749	0.36983	-0.09998	0.056809	0.37146	-0.046816	-0.15316	-0.008669	-0.046816	0.031938	-0.008669	0	0	0	-0.13648	0.0086623	0.024366	-0.14822	0.06246	0.12879	-0.13604	-0.088461	0.080206
564	5.3051	-0.11081	0.050397	0.13535	-0.089745	0.021961	0.37063	-0.10028	0.052063	0.3728	-0.046816	-0.15316	-0.008669	-0.046816	0.031938	-0.008669	0	0	0	-0.13646	0.0092178	0.024285	-0.14805	0.062031	0.12926	-0.13598	-0.088494	0.079223
565	5.3145	-0.11071	0.049834	0.13604	-0.090156	0.017188	0.37139	-0.10059	0.047327	0.37408	-0.046816	-0.15316	-0.008669	-0.046816	0.031938	-0.008669	0	0	0	-0.13644	0.0097683	0.024208	-0.14788	0.061601	0.12973	-0.13592	-0.088523	0.07825
566	5.3239	-0.11061	0.049268	0.13673	-0.090568	0.012436	0.37209	-0.1009	0.042603	0.37531	-0.046816	-0.15316	-0.008669	-0.046816	0.031938	-0.008669	0	0	0	-0.13642	0.010313	0.024136	-0.14771	0.061173	0.13019	-0.13585	-0.088548	0.077288
567	5.3333	-0.11051	0.048699	0.13741	-0.09098	0.0077097	0.37274	-0.1012	0.037899	0.37648	-0.046816	-0.15316	-0.008669	-0.046816	0.031938	-0.008669	0	0	0	-0.1364	0.010851	0.02407	-0.14754	0.060747	0.13065	-0.13579	-0.08857	0.076338
568	5.3428	-0.11042	0.048129	0.13808	-0.091393	0.0030144	0.37334	-0.10151	0.033218	0.37759	-0.046816	-0.15316	-0.008669	-0.046816	0.031938	-0.008669	0	0	0	-0.13637	0.011382	0.024009	-0.14737	0.060322	0.13111	-0.13573	-0.088587	0.075401
569	5.3522	-0.11032	0.047557	0.13874	-0.091806	-0.0016452	0.37389	-0.10182	0.028564	0.37863	-0.046816	-0.15316	-0.008669	-0.046816	0.031938	-0.008669	0	0	0	-0.13635	0.011905	0.023953	-0.1472	0.059899	0.13156	-0.13568	-0.088601	0.074478
570	5.3616	-0.11022	0.046984	0.13939	-0.092219	-0.0062641	0.37437	-0.10213	0.023944	0.37961	-0.046816	-0.15316	-0.008669	-0.046816	0.031938	-0.008669	0	0	0	-0.13632	0.012419	0.023903	-0.14703	0.059478	0.132	-0.13562	-0.08861	0.073571
571	5.371	-0.11013	0.046411	0.14003	-0.092631	-0.010837	0.3748	-0.10245	0.019362	0.38051	-0.046816	-0.15316	-0.008669	-0.046816	0.031938	-0.008669	0	0	0	-0.1363	0.012923	0.023859	-0.14687	0.059061	0.13243	-0.13557	-0.088616	0.07268
572	5.3804	-0.11003	0.045837	0.14065	-0.093044	-0.01536	0.37516	-0.10276	0.014822	0.38134	-0.046816	-0.15316	-0.008669	-0.046816	0.031938	-0.008669	0	0	0	-0.13627	0.013417	0.02382	-0.1467	0.058646	0.13286	-0.13552	-0.088617	0.071806
573	5.3899	-0.10993	0.045263	0.14127	-0.093455	-0.019827	0.37547	-0.10307	0.010329	0.3821	-0.046816	-0.15316	-0.008669	-0.046816	0.031938	-0.008669	0	0	0	-0.13624	0.0139	0.023788	-0.14653	0.058236	0.13328	-0.13547	-0.088614	0.07095
